# Blender v2.72 (sub 0) OBJ File: '7c39ae5910f745b387f905085f8448a1__.blend'
# www.blender.org
mtllib ship.mtl
o Cube.004
v 1.000000 1.566066 -2.196662
v 1.000000 1.566066 -3.911951
v -1.000000 1.566066 -3.911951
v -1.000000 1.566066 -2.196662
v 1.000000 0.285197 -2.196662
v 1.000000 0.285197 -3.911951
v -1.000000 0.285196 -3.911951
v -1.000000 0.285196 -2.196662
v 0.507500 1.383957 -5.235097
v -0.507500 1.383957 -5.235097
v 0.507500 0.752277 -5.235097
v -0.507500 0.752277 -5.235097
v 0.604845 1.079176 -1.316618
v -0.604845 1.079176 -1.316618
v 0.604845 0.772087 -1.316618
v -0.604845 0.772087 -1.316618
vn 1.000000 0.000000 0.000000
vn -0.000000 0.990700 -0.136300
vn -1.000000 -0.000000 0.000000
vn -0.000000 0.875000 0.484100
vn -0.000000 1.000000 0.000000
vn 0.000000 -1.000000 0.000000
vn -0.000000 0.000000 -1.000000
vn -0.937200 -0.000000 -0.348800
vn 0.000000 -0.943000 -0.332900
vn 0.937200 0.000000 -0.348800
vn 0.000000 0.000000 1.000000
vn 0.000000 -0.875000 0.484100
vn -0.912300 -0.000000 0.409600
vn 0.912300 0.000000 0.409600
usemtl kokpit
s off
f 5//1 6//1 2//1 1//1
f 3//2 2//2 9//2 10//2
f 7//3 8//3 4//3 3//3
f 1//4 4//4 14//4 13//4
f 1//5 2//5 3//5 4//5
f 8//6 7//6 6//6 5//6
f 11//7 12//7 10//7 9//7
f 7//8 3//8 10//8 12//8
f 6//9 7//9 12//9 11//9
f 2//10 6//10 11//10 9//10
f 16//11 15//11 13//11 14//11
f 8//12 5//12 15//12 16//12
f 4//13 8//13 16//13 14//13
f 5//14 1//14 13//14 15//14
o Cube.002
v -5.593340 0.004945 -0.509356
v -5.594486 -0.011649 -1.645693
v -5.725089 -0.241829 -0.563589
v -5.727380 -0.241829 -1.645693
v -5.593340 -0.488603 -0.509355
v -5.594486 -0.472009 -1.645693
v -5.329842 -0.488603 -0.400888
v -5.328696 -0.472009 -1.645693
v -5.198093 -0.241829 -0.346654
v -5.195802 -0.241829 -1.645693
v -5.329842 0.004945 -0.400888
v -5.328696 -0.011649 -1.645693
v -5.528150 -0.117160 -0.442933
v -5.594709 -0.241829 -0.470331
v -5.528150 -0.366498 -0.442933
v -5.395032 -0.366498 -0.388135
v -5.328473 -0.241829 -0.360737
v -5.395032 -0.117160 -0.388135
v -5.528728 -0.125543 -0.872786
v -5.595866 -0.241829 -0.872786
v -5.528728 -0.358115 -0.872786
v -5.394453 -0.358115 -0.872786
v -5.327315 -0.241829 -0.872786
v -5.394453 -0.125543 -0.872786
v -3.334012 0.222576 0.665734
v -3.333854 0.175274 -1.356731
v -3.574984 -0.241829 0.548163
v -3.574668 -0.241829 -1.356731
v -3.334011 -0.706233 0.665734
v -3.333854 -0.658932 -1.356731
v -2.852067 -0.706233 0.900875
v -2.852225 -0.658931 -1.356731
v -2.611095 -0.241828 1.018445
v -2.611411 -0.241829 -1.356731
v -2.852067 0.222576 0.900875
v -2.852225 0.175274 -1.356731
v -3.214778 -0.007214 0.813007
v -3.336515 -0.241829 0.753611
v -3.214778 -0.476444 0.813007
v -2.971301 -0.476444 0.931799
v -2.849563 -0.241829 0.991195
v -2.971301 -0.007214 0.931799
v -3.214698 -0.031111 0.043831
v -3.336356 -0.241829 0.043831
v -3.214698 -0.452547 0.043831
v -2.971381 -0.452547 0.043831
v -2.849723 -0.241829 0.043831
v -2.971381 -0.031110 0.043831
v 5.593340 0.004946 -0.509355
v 5.594486 -0.011648 -1.645692
v 5.725089 -0.241828 -0.563588
v 5.727380 -0.241828 -1.645692
v 5.593340 -0.488602 -0.509354
v 5.594486 -0.472008 -1.645692
v 5.329842 -0.488602 -0.400887
v 5.328696 -0.472008 -1.645692
v 5.198093 -0.241828 -0.346653
v 5.195802 -0.241828 -1.645692
v 5.329842 0.004946 -0.400887
v 5.328696 -0.011648 -1.645692
v 5.528150 -0.117159 -0.442932
v 5.594709 -0.241828 -0.470330
v 5.528150 -0.366497 -0.442932
v 5.395032 -0.366497 -0.388134
v 5.328473 -0.241828 -0.360736
v 5.395032 -0.117159 -0.388134
v 5.528728 -0.125542 -0.872785
v 5.595866 -0.241828 -0.872785
v 5.528728 -0.358114 -0.872785
v 5.394453 -0.358114 -0.872785
v 5.327315 -0.241828 -0.872785
v 5.394453 -0.125542 -0.872785
v 3.334012 0.222576 0.665734
v 3.333854 0.175274 -1.356731
v 3.574984 -0.241828 0.548164
v 3.574668 -0.241828 -1.356731
v 3.334011 -0.706233 0.665734
v 3.333854 -0.658931 -1.356731
v 2.852067 -0.706233 0.900876
v 2.852225 -0.658931 -1.356731
v 2.611094 -0.241828 1.018446
v 2.611411 -0.241828 -1.356731
v 2.852067 0.222576 0.900876
v 2.852225 0.175274 -1.356731
v 3.214777 -0.007213 0.813007
v 3.336514 -0.241828 0.753612
v 3.214777 -0.476443 0.813007
v 2.971301 -0.476443 0.931799
v 2.849563 -0.241828 0.991195
v 2.971301 -0.007213 0.931799
v 3.214698 -0.031110 0.043831
v 3.336355 -0.241828 0.043831
v 3.214698 -0.452547 0.043831
v 2.971381 -0.452547 0.043831
v 2.849722 -0.241828 0.043831
v 2.971381 -0.031110 0.043831
v -0.132895 -0.165321 5.916070
v -0.132895 -0.165321 4.685912
v -0.265790 -0.395501 5.916070
v -0.265790 -0.395501 4.685912
v -0.132895 -0.625681 5.916070
v -0.132895 -0.625682 4.685912
v 0.132894 -0.625681 5.916070
v 0.132894 -0.625682 4.685912
v 0.265789 -0.395501 5.916070
v 0.265789 -0.395501 4.685912
v 0.132894 -0.165321 5.916070
v 0.132894 -0.165321 4.685912
v -0.067138 -0.279215 5.916070
v -0.134276 -0.395501 5.916070
v -0.067138 -0.511787 5.916070
v 0.067137 -0.511787 5.916070
v 0.134275 -0.395501 5.916070
v 0.067137 -0.279215 5.916070
v -0.067138 -0.279215 5.458819
v -0.134276 -0.395501 5.458819
v -0.067138 -0.511787 5.458819
v 0.067137 -0.511787 5.458819
v 0.134275 -0.395501 5.458819
v 0.067137 -0.279215 5.458819
v 0.829196 0.393436 -5.039519
v 0.829197 0.393436 -6.036256
v 0.476797 0.247467 -5.039519
v 0.476797 0.247467 -6.036256
v 0.330828 -0.104933 -5.039519
v 0.330828 -0.104933 -6.036256
v 0.476797 -0.457333 -5.039519
v 0.476797 -0.457333 -6.036256
v 0.829197 -0.603302 -5.039519
v 0.829197 -0.603302 -6.036256
v 1.181597 -0.457333 -5.039519
v 1.181597 -0.457333 -6.036256
v 1.327565 -0.104933 -5.039519
v 1.327565 -0.104933 -6.036256
v 1.181597 0.247467 -5.039519
v 1.181597 0.247467 -6.036256
v 0.829197 0.258944 -6.090013
v 0.571896 0.152367 -6.090013
v 0.465319 -0.104933 -6.090013
v 0.571896 -0.362234 -6.090013
v 0.829197 -0.468811 -6.090013
v 1.086497 -0.362234 -6.090013
v 1.193074 -0.104933 -6.090013
v 1.086497 0.152367 -6.090013
v 0.829197 0.188766 -5.115731
v 0.621520 0.102743 -5.115731
v 0.535498 -0.104933 -5.115731
v 0.621520 -0.312610 -5.115731
v 0.829197 -0.398632 -5.115731
v 1.036873 -0.312610 -5.115731
v 1.122895 -0.104933 -5.115731
v 1.036873 0.102743 -5.115731
v -0.829196 0.393435 -5.039519
v -0.829196 0.393435 -6.036256
v -0.476796 0.247467 -5.039519
v -0.476796 0.247467 -6.036256
v -0.330827 -0.104933 -5.039519
v -0.330827 -0.104933 -6.036256
v -0.476796 -0.457333 -5.039519
v -0.476796 -0.457333 -6.036256
v -0.829196 -0.603302 -5.039519
v -0.829196 -0.603302 -6.036256
v -1.181596 -0.457333 -5.039519
v -1.181596 -0.457333 -6.036256
v -1.327565 -0.104933 -5.039519
v -1.327565 -0.104933 -6.036256
v -1.181596 0.247467 -5.039519
v -1.181596 0.247467 -6.036256
v -0.829196 0.258944 -6.090013
v -0.571895 0.152367 -6.090013
v -0.465318 -0.104933 -6.090013
v -0.571895 -0.362234 -6.090013
v -0.829196 -0.468811 -6.090013
v -1.086496 -0.362234 -6.090013
v -1.193074 -0.104933 -6.090013
v -1.086496 0.152367 -6.090013
v -0.829196 0.188766 -5.115731
v -0.621520 0.102743 -5.115731
v -0.535497 -0.104933 -5.115731
v -0.621520 -0.312610 -5.115731
v -0.829196 -0.398632 -5.115731
v -1.036873 -0.312610 -5.115731
v -1.122895 -0.104933 -5.115731
v -1.036873 0.102743 -5.115731
vn -0.530500 0.734300 0.423600
vn -0.508300 0.861100 -0.009400
vn -1.000000 -0.000000 -0.002600
vn -0.929800 0.000000 0.368000
vn -0.508300 -0.861100 -0.009400
vn -0.530500 -0.734300 0.423600
vn 0.510700 -0.859700 -0.009200
vn 0.300700 -0.751900 0.586700
vn 1.000000 0.000000 -0.002300
vn 0.722100 0.000000 0.691800
vn 0.300700 0.751900 0.586700
vn 0.510700 0.859700 -0.009200
vn -0.187000 -0.431400 0.882500
vn -0.521500 -0.234000 0.820500
vn -0.573700 0.000000 0.819000
vn -0.521500 0.234000 0.820500
vn -0.187000 0.431400 0.882500
vn 0.199600 0.000000 0.979900
vn 0.400500 -0.677900 0.616400
vn -0.403300 -0.676900 0.615700
vn -0.793900 0.000000 0.608000
vn -0.403300 0.676900 0.615700
vn 0.400500 0.677900 0.616400
vn 0.793600 0.000000 0.608400
vn -0.545800 0.742700 0.387900
vn -0.510700 0.859600 -0.016200
vn -1.000000 -0.000000 -0.006700
vn -0.944200 0.000000 0.329400
vn -0.510700 -0.859600 -0.016200
vn -0.545800 -0.742700 0.387900
vn 0.515600 -0.856700 -0.015700
vn 0.288600 -0.765100 0.575700
vn 1.000000 -0.000000 -0.005700
vn 0.712900 0.000000 0.701200
vn 0.288600 0.765100 0.575700
vn 0.515600 0.856700 -0.015700
vn -0.262200 -0.423000 0.867400
vn -0.552200 -0.192800 0.811100
vn -0.573600 0.000000 0.819100
vn -0.552200 0.192800 0.811100
vn -0.262200 0.423000 0.867400
vn 0.145600 0.000000 0.989300
vn 0.400800 -0.674000 0.620500
vn -0.406200 -0.672100 0.619100
vn -0.793600 0.000000 0.608400
vn -0.406200 0.672100 0.619100
vn 0.400800 0.674000 0.620500
vn 0.792700 0.000000 0.609600
vn 0.530500 0.734300 0.423600
vn 0.929800 0.000000 0.368000
vn 1.000000 -0.000000 -0.002600
vn 0.508300 0.861100 -0.009400
vn 0.530500 -0.734300 0.423600
vn 0.508300 -0.861100 -0.009400
vn -0.300700 -0.751900 0.586700
vn -0.510700 -0.859700 -0.009200
vn -0.722100 0.000000 0.691800
vn -1.000000 0.000000 -0.002300
vn -0.300700 0.751900 0.586700
vn -0.510700 0.859700 -0.009200
vn 0.521500 -0.234000 0.820500
vn 0.187000 -0.431400 0.882500
vn 0.573700 0.000000 0.819000
vn 0.521500 0.234000 0.820500
vn 0.187000 0.431400 0.882500
vn -0.199600 0.000000 0.979900
vn 0.403300 -0.676900 0.615700
vn -0.400500 -0.677900 0.616400
vn 0.793900 0.000000 0.608000
vn 0.403300 0.676900 0.615700
vn -0.400500 0.677900 0.616400
vn 0.545800 0.742700 0.387900
vn 0.944200 0.000000 0.329400
vn 1.000000 -0.000000 -0.006700
vn 0.510700 0.859600 -0.016200
vn 0.545800 -0.742700 0.387900
vn 0.510700 -0.859600 -0.016200
vn -0.288600 -0.765100 0.575700
vn -0.515600 -0.856700 -0.015700
vn -0.712900 0.000000 0.701200
vn -1.000000 -0.000000 -0.005700
vn -0.288600 0.765100 0.575700
vn -0.515600 0.856700 -0.015700
vn 0.552200 -0.192800 0.811100
vn 0.262200 -0.423000 0.867400
vn 0.573600 0.000000 0.819100
vn 0.552200 0.192800 0.811100
vn 0.262200 0.423000 0.867400
vn -0.145600 0.000000 0.989300
vn 0.406200 -0.672100 0.619100
vn -0.400800 -0.674000 0.620500
vn 0.406200 0.672100 0.619100
vn -0.400800 0.674000 0.620500
vn -0.792700 0.000000 0.609600
vn -0.396200 0.686200 0.610000
vn -0.500000 0.866000 -0.000000
vn -1.000000 -0.000000 -0.000000
vn -0.792400 0.000000 0.610000
vn -0.500000 -0.866000 0.000000
vn -0.396200 -0.686200 0.610000
vn 0.500000 -0.866000 0.000000
vn 0.396200 -0.686200 0.610000
vn 1.000000 0.000000 0.000000
vn 0.792400 0.000000 0.610000
vn 0.396200 0.686200 0.610000
vn 0.500000 0.866000 -0.000000
vn 0.272300 -0.471700 0.838600
vn -0.272300 -0.471700 0.838600
vn -0.544700 0.000000 0.838600
vn -0.272300 0.471700 0.838600
vn 0.272300 0.471700 0.838600
vn 0.544700 0.000000 0.838600
vn -0.000000 1.000000 -0.000000
vn 0.000000 0.863100 -0.505000
vn -0.610300 0.610300 -0.505000
vn -0.707100 0.707100 -0.000000
vn -0.863100 0.000000 -0.505000
vn -0.610300 -0.610300 -0.505000
vn -0.707100 -0.707100 -0.000000
vn 0.000000 -0.863100 -0.505000
vn 0.000000 -1.000000 0.000000
vn 0.610300 -0.610300 -0.505000
vn 0.707100 -0.707100 0.000000
vn 0.863100 0.000000 -0.505000
vn 0.610300 0.610300 -0.505000
vn -0.355100 0.000000 -0.934800
vn -0.251100 -0.251100 -0.934800
vn 0.707100 0.707100 0.000000
vn 0.000000 -0.355100 -0.934800
vn -0.251100 0.251100 -0.934800
vn 0.000000 0.355100 -0.934800
vn 0.251100 0.251100 -0.934800
vn 0.355100 0.000000 -0.934800
vn 0.251100 -0.251100 -0.934800
vn -0.705300 -0.705300 -0.071800
vn 0.000000 -0.997400 -0.071800
vn -0.997400 -0.000000 -0.071800
vn -0.705300 0.705300 -0.071800
vn -0.000000 0.997400 -0.071800
vn 0.705300 0.705300 -0.071800
vn 0.997400 -0.000000 -0.071800
vn 0.705300 -0.705300 -0.071800
usemtl stal
s 1
f 17//15 18//16 20//17 19//18
f 19//18 20//17 22//19 21//20
f 21//20 22//19 24//21 23//22
f 23//22 24//21 26//23 25//24
f 27//25 28//26 18//16 17//15
f 25//24 26//23 28//26 27//25
f 27//25 17//15 29//27 34//28
f 25//24 27//25 34//28 33//29
f 23//22 25//24 33//29 32//30
f 21//20 23//22 32//30 31//31
f 19//18 21//20 31//31 30//32
f 17//15 19//18 30//32 29//27
f 34//28 29//27 35//33 40//34
f 33//29 34//28 40//34 39//35
f 32//30 33//29 39//35 38//36
f 31//31 32//30 38//36 37//37
f 30//32 31//31 37//37 36//38
f 29//27 30//32 36//38 35//33
f 35//33 36//38 37//37 38//36 39//35 40//34
f 41//39 42//40 44//41 43//42
f 43//42 44//41 46//43 45//44
f 45//44 46//43 48//45 47//46
f 47//46 48//45 50//47 49//48
f 51//49 52//50 42//40 41//39
f 49//48 50//47 52//50 51//49
f 51//49 41//39 53//51 58//52
f 49//48 51//49 58//52 57//53
f 47//46 49//48 57//53 56//54
f 45//44 47//46 56//54 55//55
f 43//42 45//44 55//55 54//56
f 41//39 43//42 54//56 53//51
f 58//52 53//51 59//57 64//58
f 57//53 58//52 64//58 63//59
f 56//54 57//53 63//59 62//60
f 55//55 56//54 62//60 61//61
f 54//56 55//55 61//61 60//62
f 53//51 54//56 60//62 59//57
f 59//57 60//62 61//61 62//60 63//59 64//58
f 65//63 67//64 68//65 66//66
f 67//64 69//67 70//68 68//65
f 69//67 71//69 72//70 70//68
f 71//69 73//71 74//72 72//70
f 75//73 65//63 66//66 76//74
f 73//71 75//73 76//74 74//72
f 75//73 82//75 77//76 65//63
f 73//71 81//77 82//75 75//73
f 71//69 80//78 81//77 73//71
f 69//67 79//79 80//78 71//69
f 67//64 78//80 79//79 69//67
f 65//63 77//76 78//80 67//64
f 82//75 88//81 83//82 77//76
f 81//77 87//83 88//81 82//75
f 80//78 86//84 87//83 81//77
f 79//79 85//85 86//84 80//78
f 78//80 84//59 85//85 79//79
f 77//76 83//82 84//59 78//80
f 83//82 88//81 87//83 86//84 85//85 84//59
f 89//86 91//87 92//88 90//89
f 91//87 93//90 94//91 92//88
f 93//90 95//92 96//93 94//91
f 95//92 97//94 98//95 96//93
f 99//96 89//86 90//89 100//97
f 97//94 99//96 100//97 98//95
f 99//96 106//98 101//99 89//86
f 97//94 105//100 106//98 99//96
f 95//92 104//101 105//100 97//94
f 93//90 103//102 104//101 95//92
f 91//87 102//103 103//102 93//90
f 89//86 101//99 102//103 91//87
f 106//98 112//104 107//105 101//99
f 105//100 111//38 112//104 106//98
f 104//101 110//106 111//38 105//100
f 103//102 109//107 110//106 104//101
f 102//103 108//108 109//107 103//102
f 101//99 107//105 108//108 102//103
f 107//105 112//104 111//38 110//106 109//107 108//108
f 113//109 114//110 116//111 115//112
f 115//112 116//111 118//113 117//114
f 117//114 118//113 120//115 119//116
f 119//116 120//115 122//117 121//118
f 123//119 124//120 114//110 113//109
f 121//118 122//117 124//120 123//119
f 123//119 113//109 125//121 130//122
f 121//118 123//119 130//122 129//123
f 119//116 121//118 129//123 128//124
f 117//114 119//116 128//124 127//125
f 115//112 117//114 127//125 126//126
f 113//109 115//112 126//126 125//121
f 130//122 125//121 131//116 136//114
f 129//123 130//122 136//114 135//112
f 128//124 129//123 135//112 134//109
f 127//125 128//124 134//109 133//119
f 126//126 127//125 133//119 132//118
f 125//121 126//126 132//118 131//116
f 131//116 132//118 133//119 134//109 135//112 136//114
f 137//127 138//128 140//129 139//130
f 139//130 140//129 142//131 141//111
f 141//111 142//131 144//132 143//133
f 143//133 144//132 146//134 145//135
f 145//135 146//134 148//136 147//137
f 147//137 148//136 150//138 149//117
f 152//139 150//138 159//140 160//141
f 151//142 152//139 138//128 137//127
f 149//117 150//138 152//139 151//142
f 138//128 152//139 160//141 153//143
f 150//138 148//136 158//144 159//140
f 148//136 146//134 157//145 158//144
f 146//134 144//132 156//146 157//145
f 144//132 142//131 155//147 156//146
f 142//131 140//129 154//148 155//147
f 140//129 138//128 153//143 154//148
f 153//143 160//141 168//149 161//150
f 160//141 159//140 167//151 168//149
f 159//140 158//144 166//152 167//151
f 158//144 157//145 165//153 166//152
f 157//145 156//146 164//154 165//153
f 156//146 155//147 163//155 164//154
f 155//147 154//148 162//156 163//155
f 154//148 153//143 161//150 162//156
f 169//127 171//142 172//139 170//128
f 171//142 173//117 174//138 172//139
f 173//117 175//137 176//136 174//138
f 175//137 177//135 178//134 176//136
f 177//135 179//133 180//132 178//134
f 179//133 181//111 182//131 180//132
f 184//129 192//148 191//147 182//131
f 183//130 169//127 170//128 184//129
f 181//111 183//130 184//129 182//131
f 170//128 185//143 192//148 184//129
f 182//131 191//147 190//146 180//132
f 180//132 190//146 189//145 178//134
f 178//134 189//145 188//144 176//136
f 176//136 188//144 187//140 174//138
f 174//138 187//140 186//141 172//139
f 172//139 186//141 185//143 170//128
f 185//143 193//150 200//156 192//148
f 192//148 200//156 199//155 191//147
f 191//147 199//155 198//154 190//146
f 190//146 198//154 197//153 189//145
f 189//145 197//153 196//152 188//144
f 188//144 196//152 195//151 187//140
f 187//140 195//151 194//149 186//141
f 186//141 194//149 193//150 185//143
o Cube
v 2.216724 1.029241 -4.081135
v 2.216724 1.029241 0.352312
v -2.216724 1.029241 0.352311
v -2.216723 1.029240 -4.081137
v 2.216725 -1.029241 -4.081134
v 2.216722 -1.029240 0.352314
v -2.216725 -1.029241 0.352311
v -2.216723 -1.029241 -4.081136
v 0.963538 0.031697 5.288205
v -0.963542 0.031697 5.288205
v 0.963538 -0.638462 5.288206
v -0.963542 -0.638462 5.288204
v 1.706952 0.792549 -5.274035
v -1.706950 0.792549 -5.274037
v 1.706953 -0.792550 -5.274035
v -1.706950 -0.792551 -5.274036
v 0.000000 1.173085 -4.081136
v -0.000000 1.173086 0.352312
v 0.000001 -1.179098 -4.081135
v -0.000001 -1.179098 0.352312
v -0.000002 0.031697 5.288205
v -0.000002 -0.638462 5.288205
v 0.000001 0.792549 -5.274036
v 0.000001 -0.792551 -5.274035
v 1.450909 0.554784 -5.078974
v 1.450910 -0.554785 -5.078973
v 0.256044 0.554784 -5.078974
v 0.256044 -0.554786 -5.078974
v -1.450907 0.554784 -5.078975
v -1.450908 -0.554786 -5.078974
v -0.256042 0.554784 -5.078974
v -0.256041 -0.554786 -5.078974
v 6.513040 -0.254030 -3.590503
v 6.513040 -0.254029 -1.424166
v -6.513040 -0.254031 -1.424167
v -6.513036 -0.254031 -3.590505
v 6.513042 -0.608647 -3.590503
v 6.513035 -0.608647 -1.424165
v -6.513041 -0.608648 -1.424167
v -6.513039 -0.608648 -3.590504
vt 0.750021 0.127178
vt 0.867493 0.300492
vt 0.789559 0.364008
vt 0.672088 0.190694
vt 0.209933 0.183846
vt 0.285592 0.115016
vt 0.411039 0.281455
vt 0.335379 0.350285
vt 0.133823 0.252599
vt 0.259270 0.419037
vt 0.061298 0.485564
vt 0.000000 0.404236
vt 0.507216 0.505545
vt 0.474231 0.535446
vt 0.445918 0.000000
vt 0.507216 0.081328
vt 0.117165 0.191935
vt 0.175599 0.138963
vt 0.433581 0.827826
vt 0.497692 0.827826
vt 0.497692 0.874362
vt 0.433581 0.874362
vt 0.704143 0.790668
vt 0.507216 0.790668
vt 0.602647 0.544539
vt 0.666759 0.544540
vt 0.196927 0.802353
vt 0.000000 0.802353
vt 0.037384 0.565348
vt 0.101496 0.565348
vt 0.937743 0.243237
vt 1.000000 0.492044
vt 0.967795 0.518292
vt 0.507216 0.873809
vt 0.658856 0.873809
vt 0.636110 0.886280
vt 0.529962 0.886280
vt 0.497692 0.565348
vt 0.497692 0.781290
vt 0.447922 0.756460
vt 0.447922 0.590177
vt 0.393854 0.781290
vt 0.393854 0.565348
vt 0.651197 0.135326
vt 0.708250 0.088827
vt 0.820271 0.069923
vt 0.765304 0.042329
vt 0.529962 0.861338
vt 0.636110 0.861338
vt 0.935589 0.544539
vt 0.433581 0.781290
vt 0.234032 0.085992
vt 0.441247 0.565348
vt 0.529962 0.803139
vt 0.636110 0.803139
vt 0.658856 0.790668
vt 0.636110 0.944479
vt 0.529962 0.944479
vt 0.507216 0.956950
vt 0.658856 0.956950
vt 0.427779 0.886670
vt 0.393854 0.886670
vt 0.427779 0.781290
vt 0.692781 0.895370
vt 0.658856 0.895370
vt 0.692781 0.790668
vt 0.894979 0.760482
vt 0.894979 0.976424
vt 0.704143 0.841804
vt 0.704143 0.804603
vt 0.375929 0.784058
vt 0.375929 1.000000
vt 0.196927 0.955878
vt 0.196927 0.918678
vt 0.564617 0.439529
vt 0.507216 0.354842
vt 0.393854 0.784058
vt 0.196927 0.784058
vt 0.319692 0.565348
vt 0.353617 0.565348
vt 0.894979 0.544539
vt 0.704143 0.716360
vt 0.704143 0.679159
vt 0.942599 0.000000
vt 1.000000 0.084687
vn 0.064800 -0.997900 0.000000
vn 0.067400 0.997700 -0.000000
vn -0.097400 0.995200 -0.000000
vn 0.046800 0.993900 -0.099700
vn 0.097400 0.995200 -0.000000
vn -0.036900 0.964900 0.259900
vn 0.000000 0.000000 -1.000000
vn 0.969200 -0.000000 -0.246100
vn -0.969200 0.000000 -0.246100
vn -0.044100 -0.975200 -0.216900
vn 0.606000 0.000000 0.795500
vn 0.919600 -0.000000 0.393000
vn -0.919600 -0.000000 0.393000
vn 0.035400 -0.965700 0.257400
vn -0.035400 -0.965700 0.257400
vn -0.606000 0.000000 0.795500
vn 0.044100 -0.975200 -0.216900
vn 0.036900 0.964900 0.259900
vn -0.046800 0.993900 -0.099700
vn -0.067400 0.997700 -0.000000
vn -0.064800 -0.997900 0.000000
vn -0.000000 0.000000 1.000000
vn -0.000000 -0.634300 0.773100
vn -0.000000 0.634300 0.773100
vn -1.000000 0.000000 -0.000000
vn 1.000000 -0.000000 0.000000
vn 0.113500 0.000000 0.993500
vn 0.382100 -0.000000 -0.924100
vn 0.286200 -0.958200 0.000000
vn -0.382100 0.000000 -0.924100
vn -0.113500 0.000000 0.993500
vn -0.286200 -0.958200 0.000000
usemtl statek
s off
f 217/1/157 218/2/157 203/3/157 204/4/157
f 219/5/158 208/6/158 207/7/158 220/8/158
f 205/9/159 206/10/159 238/11/159 237/12/159
f 220/8/160 207/7/160 212/13/160 222/14/160
f 207/7/161 208/6/161 240/15/161 239/16/161
f 219/5/162 205/9/162 215/17/162 224/18/162
f 221/19/163 222/20/163 212/21/163 210/22/163
f 207/23/164 203/24/164 210/25/164 212/26/164
f 202/27/165 206/28/165 211/29/165 209/30/165
f 218/2/166 202/31/166 209/32/166 221/33/166
f 224/34/167 223/35/167 231/36/167 232/37/167
f 204/38/168 208/39/168 216/40/168 214/41/168
f 205/42/169 201/43/169 213/41/169 215/40/169
f 217/1/170 204/4/170 214/44/170 223/45/170
f 201/46/171 217/1/171 223/45/171 213/47/171
f 223/35/172 224/34/172 228/48/172 227/49/172
f 203/3/173 218/2/173 221/33/173 210/50/173
f 209/51/163 211/39/163 222/20/163 221/19/163
f 208/6/174 219/5/174 224/18/174 216/52/174
f 206/10/175 220/8/175 222/14/175 211/53/175
f 205/9/176 219/5/176 220/8/176 206/10/176
f 201/46/177 202/31/177 218/2/177 217/1/177
f 226/54/178 225/55/178 227/49/178 228/48/178
f 224/34/179 215/24/179 226/54/179 228/48/179
f 213/56/180 223/35/180 227/49/180 225/55/180
f 215/24/167 213/56/167 225/55/167 226/54/167
f 232/37/178 231/36/178 229/57/178 230/58/178
f 216/59/179 224/34/179 232/37/179 230/58/179
f 214/60/172 216/59/172 230/58/172 229/57/172
f 223/35/180 214/60/180 229/57/180 231/36/180
f 233/61/181 237/62/181 238/42/181 234/63/181
f 235/64/182 239/65/182 240/56/182 236/66/182
f 208/67/183 204/68/183 236/69/183 240/70/183
f 203/71/184 207/72/184 239/73/184 235/74/184
f 204/4/185 203/3/185 235/75/185 236/76/185
f 206/77/186 202/78/186 234/79/186 238/80/186
f 201/81/187 205/67/187 237/82/187 233/83/187
f 202/31/188 201/46/188 233/84/188 234/85/188
